<svg width="26" height="25" viewBox="0 0 26 25" fill="none" xmlns="http://www.w3.org/2000/svg">
<path d="M21.6137 9.77808H11.9214C10.7319 9.77808 9.76758 10.6735 9.76758 11.7781V20.7781C9.76758 21.8826 10.7319 22.7781 11.9214 22.7781H21.6137C22.8033 22.7781 23.7676 21.8826 23.7676 20.7781V11.7781C23.7676 10.6735 22.8033 9.77808 21.6137 9.77808Z" stroke="white" stroke-linecap="round" stroke-linejoin="round"/>
<path d="M5.46124 15.7781H4.38431C3.81308 15.7781 3.26524 15.5674 2.86132 15.1923C2.45739 14.8172 2.23047 14.3085 2.23047 13.7781V4.77808C2.23047 4.24764 2.45739 3.73894 2.86132 3.36386C3.26524 2.98879 3.81308 2.77808 4.38431 2.77808H14.0766C14.6479 2.77808 15.1957 2.98879 15.5996 3.36386C16.0035 3.73894 16.2305 4.24764 16.2305 4.77808V5.77808" stroke="white" stroke-linecap="round" stroke-linejoin="round"/>
</svg>
