<svg width="17" height="17" viewBox="0 0 17 17" fill="none" xmlns="http://www.w3.org/2000/svg">
<path d="M7.64063 3.20288H2.97396C2.62034 3.20288 2.2812 3.34336 2.03115 3.59341C1.7811 3.84345 1.64063 4.18259 1.64062 4.53621V13.8695C1.64063 14.2232 1.7811 14.5623 2.03115 14.8124C2.2812 15.0624 2.62034 15.2029 2.97396 15.2029H12.3073C12.6609 15.2029 13.0001 15.0624 13.2501 14.8124C13.5001 14.5623 13.6406 14.2232 13.6406 13.8695V9.20288" stroke="white" stroke-linecap="round" stroke-linejoin="round"/>
<path d="M12.6406 2.20279C12.9058 1.93757 13.2656 1.78857 13.6406 1.78857C14.0157 1.78857 14.3754 1.93757 14.6406 2.20279C14.9058 2.468 15.0548 2.82771 15.0548 3.20279C15.0548 3.57786 14.9058 3.93757 14.6406 4.20279L8.30729 10.5361L5.64062 11.2028L6.30729 8.53612L12.6406 2.20279Z" stroke="white" stroke-linecap="round" stroke-linejoin="round"/>
</svg>
