<svg width="232" height="52" viewBox="0 0 232 52" fill="none" xmlns="http://www.w3.org/2000/svg">
<g clip-path="url(#clip0_930_2435)">
<path d="M49.9603 15.8787C48.6559 12.7836 46.7703 9.99681 44.3868 7.61323C42.0032 5.22965 39.2164 3.35599 36.1213 2.03968C32.9195 0.687799 29.5161 0 26.0059 0C22.4958 0 19.0924 0.687799 15.8787 2.03968C12.7836 3.34413 9.99681 5.22965 7.61323 7.61323C5.22965 9.99681 3.35599 12.7836 2.03968 15.8787C0.687799 19.0924 0 22.4958 0 26.0059C0 29.5161 0.687799 32.9195 2.03968 36.1332C3.34413 39.2283 5.22965 42.015 7.61323 44.3986C9.99681 46.7822 12.7836 48.6559 15.8787 49.9722C19.0805 51.3241 22.4958 52.0119 26.0059 52.0119C29.5161 52.0119 32.9195 51.3241 36.1332 49.9722C39.2283 48.6677 42.015 46.7822 44.3986 44.3986C46.7822 42.015 48.6559 39.2283 49.9722 36.1332C51.3241 32.9314 52.0119 29.5161 52.0119 26.0059C52.0119 22.4958 51.3122 19.0924 49.9603 15.8787ZM26.2787 49.652C13.2223 49.652 2.63261 39.0623 2.63261 26.0059C2.63261 12.9496 13.2223 2.35986 26.2787 2.35986C39.335 2.35986 49.9247 12.9377 49.9247 26.0059C49.9247 39.0741 39.3469 49.652 26.2787 49.652Z" fill="url(#paint0_linear_930_2435)"/>
<path d="M26.2784 2.35986C13.2221 2.35986 2.63232 12.9496 2.63232 26.0059C2.63232 39.0623 13.2221 49.652 26.2784 49.652C39.3347 49.652 49.9244 39.0623 49.9244 26.0059C49.9244 12.9496 39.3466 2.35986 26.2784 2.35986ZM26.0056 47.2921C14.2656 47.2921 4.71944 37.746 4.71944 26.0059C4.71944 14.2659 14.2656 4.71973 26.0056 4.71973C37.7457 4.71973 47.2918 14.2659 47.2918 26.0059C47.2918 37.746 37.7457 47.2921 26.0056 47.2921Z" fill="url(#paint1_linear_930_2435)"/>
<path d="M37.7102 21.0016C38.3624 22.5314 38.7301 24.2272 38.7301 25.9941C38.7301 33.0263 33.0261 38.7303 25.9939 38.7303C22.1636 38.7303 18.7246 37.0345 16.4003 34.3663L14.6689 35.4454C14.9536 35.7893 15.25 36.1095 15.5702 36.4297C18.357 39.2165 22.0569 40.7462 26.0058 40.7462C29.9547 40.7462 33.6546 39.2165 36.4413 36.4297C39.2281 33.6429 40.7579 29.943 40.7579 25.9941C40.7579 23.8596 40.3073 21.7962 39.4534 19.9106L37.7102 21.0016Z" fill="url(#paint2_linear_930_2435)"/>
<path d="M13.2694 26.006C13.2694 18.9739 18.9734 13.2699 26.0055 13.2699C30.4644 13.2699 34.3896 15.5586 36.6546 19.0332L38.3741 17.954C37.8167 17.1002 37.1763 16.3057 36.4411 15.5704C33.6543 12.7837 29.9545 11.2539 26.0055 11.2539C22.0566 11.2539 18.3567 12.7837 15.57 15.5704C12.7832 18.3572 11.2534 22.0571 11.2534 26.006C11.2534 28.7335 11.9887 31.3542 13.3761 33.6311L15.0956 32.552C13.9335 30.6427 13.2694 28.4015 13.2694 26.006Z" fill="url(#paint3_linear_930_2435)"/>
<path d="M15.2855 26.0057C15.2855 20.1001 20.0882 15.2974 25.9938 15.2974C29.7293 15.2974 33.0141 17.2184 34.9352 20.112L36.6547 19.0328C34.3779 15.5582 30.4527 13.2695 26.0057 13.2695C18.9735 13.2695 13.2695 18.9735 13.2695 26.0057C13.2695 28.4011 13.9336 30.6424 15.0839 32.5516L16.8034 31.4725C15.8428 29.8716 15.2855 27.9979 15.2855 26.0057Z" fill="url(#paint4_linear_930_2435)"/>
<path d="M36.7142 26.0058C36.7142 31.9114 31.9115 36.7141 26.0059 36.7141C22.8989 36.7141 20.1003 35.386 18.1436 33.2751L16.4004 34.3661C18.7365 37.0462 22.1637 38.7301 25.994 38.7301C33.0262 38.7301 38.7302 33.0261 38.7302 25.9939C38.7302 24.2151 38.3625 22.5312 37.7103 21.0015L35.9671 22.0925C36.4533 23.302 36.7142 24.6183 36.7142 26.0058Z" fill="url(#paint5_linear_930_2435)"/>
<path d="M14.6689 35.4455L18.1435 33.2754L17.6099 35.576L14.6689 35.4455Z" fill="url(#paint6_linear_930_2435)"/>
<path d="M35.979 22.0925L39.4536 19.9224L38.2203 22.4008L35.979 22.0925Z" fill="url(#paint7_linear_930_2435)"/>
<path d="M38.3745 17.9536L34.8999 20.1237L35.6589 17.7046L38.3745 17.9536Z" fill="url(#paint8_linear_930_2435)"/>
<path d="M16.8271 31.4488L13.3525 33.6308L14.3961 31.2354L16.8271 31.4488Z" fill="url(#paint9_linear_930_2435)"/>
<path d="M24.5352 40.6511V47.4698L26.0056 49.6517V38.73L24.5352 40.6511Z" fill="url(#paint10_linear_930_2435)"/>
<path d="M26.0059 38.73V49.6517L27.4645 47.4698V40.6511L26.0059 38.73Z" fill="url(#paint11_linear_930_2435)"/>
<path d="M24.5352 4.70787V11.3013L26.0056 13.2698V2.35986L24.5352 4.70787Z" fill="url(#paint12_linear_930_2435)"/>
<path d="M26.0059 2.35986V13.2698L27.4645 11.3013V4.70787L26.0059 2.35986Z" fill="url(#paint13_linear_930_2435)"/>
<path d="M84.5164 28.5083C85.216 29.3858 85.5599 30.3938 85.5599 31.5204C85.5599 32.5402 85.3109 33.4415 84.801 34.2241C84.3029 35.0068 83.5677 35.6116 82.619 36.0504C81.6703 36.4891 80.5437 36.7144 79.2511 36.7144H70.9976V17.5746H78.8954C80.188 17.5746 81.3145 17.7881 82.2514 18.2032C83.1882 18.6182 83.9116 19.2111 84.3859 19.9582C84.8721 20.7053 85.1093 21.5591 85.1093 22.5078C85.1093 23.6225 84.8128 24.5594 84.2199 25.3065C83.627 26.0535 82.8324 26.5872 81.8482 26.8955C82.9392 27.0971 83.8286 27.6307 84.5164 28.5083ZM74.8397 25.4725H78.3499C79.263 25.4725 79.9627 25.2709 80.4607 24.8558C80.9588 24.4408 81.196 23.8597 81.196 23.0889C81.196 22.3181 80.9469 21.7252 80.4607 21.3101C79.9627 20.8951 79.263 20.6816 78.3499 20.6816H74.8397V25.4725ZM80.8876 32.9315C81.4094 32.4928 81.6703 31.8761 81.6703 31.0697C81.6703 30.2515 81.3976 29.5993 80.8521 29.1368C80.3066 28.6743 79.5595 28.4371 78.6345 28.4371H74.8516V33.5956H78.7175C79.6425 33.5838 80.3659 33.3703 80.8876 32.9315ZM100.371 33.062H92.7462L91.4892 36.7144H87.4573L94.3472 17.5391H98.8179L105.708 36.7144H101.628L100.371 33.062ZM99.3278 29.9906L96.5529 21.986L93.7779 29.9906H99.3278ZM108.613 22.0572C109.467 20.563 110.629 19.4009 112.099 18.5708C113.57 17.7407 115.218 17.3256 117.045 17.3256C119.179 17.3256 121.053 17.8711 122.666 18.974C124.278 20.0768 125.393 21.5947 126.033 23.5277H121.622C121.183 22.6146 120.567 21.9268 119.772 21.4761C118.977 21.0136 118.053 20.7883 117.021 20.7883C115.906 20.7883 114.91 21.0492 114.044 21.571C113.179 22.0928 112.503 22.828 112.016 23.7767C111.53 24.7254 111.293 25.8401 111.293 27.1208C111.293 28.3778 111.53 29.4925 112.016 30.4531C112.503 31.4136 113.179 32.1489 114.044 32.6707C114.91 33.1924 115.906 33.4533 117.021 33.4533C118.064 33.4533 118.977 33.2162 119.772 32.7537C120.567 32.2912 121.183 31.5915 121.622 30.6784H126.033C125.393 32.6351 124.278 34.153 122.677 35.244C121.076 36.335 119.203 36.8805 117.045 36.8805C115.218 36.8805 113.57 36.4654 112.099 35.6353C110.629 34.8052 109.467 33.6431 108.613 32.1607C107.759 30.6784 107.332 28.9945 107.332 27.109C107.332 25.2353 107.759 23.5395 108.613 22.0572ZM140.145 36.7144L133.184 28.1881V36.7144H129.342V17.5746H133.184V26.1603L140.145 17.5746H144.782L136.884 27.0615L145.007 36.7144H140.145ZM150.521 36.2164C149.454 35.7539 148.6 35.1017 147.984 34.236C147.367 33.3822 147.047 32.3623 147.023 31.1883H151.138C151.197 31.971 151.47 32.5995 151.98 33.0501C152.478 33.5126 153.178 33.7379 154.055 33.7379C154.957 33.7379 155.656 33.5245 156.166 33.0976C156.676 32.6707 156.937 32.1014 156.937 31.4136C156.937 30.8444 156.759 30.3819 156.415 30.0143C156.071 29.6467 155.632 29.3621 155.111 29.1486C154.589 28.9352 153.877 28.7099 152.952 28.449C151.707 28.0814 150.699 27.7256 149.917 27.3699C149.134 27.0141 148.47 26.4686 147.912 25.7571C147.355 25.0337 147.071 24.0732 147.071 22.8636C147.071 21.7252 147.355 20.7409 147.924 19.8989C148.494 19.057 149.288 18.4166 150.308 17.966C151.328 17.5154 152.502 17.29 153.818 17.29C155.798 17.29 157.399 17.7644 158.633 18.7249C159.866 19.6855 160.554 21.0255 160.672 22.745H156.451C156.415 22.0809 156.131 21.5473 155.609 21.1085C155.087 20.6816 154.399 20.4681 153.533 20.4681C152.786 20.4681 152.182 20.6579 151.743 21.0492C151.292 21.4287 151.067 21.986 151.067 22.7213C151.067 23.2312 151.233 23.6581 151.577 24.002C151.921 24.3459 152.336 24.6187 152.834 24.8203C153.332 25.0337 154.043 25.2709 154.956 25.5436C156.202 25.9112 157.21 26.2789 158.004 26.6465C158.787 27.0141 159.463 27.5596 160.032 28.2948C160.601 29.0301 160.886 29.9906 160.886 31.1765C160.886 32.1963 160.625 33.1569 160.091 34.0344C159.558 34.9119 158.787 35.6116 157.755 36.1334C156.735 36.6551 155.514 36.916 154.103 36.916C152.798 36.9042 151.589 36.6789 150.521 36.2164ZM177.251 17.5746V20.6697H172.151V36.7144H168.309V20.6697H163.21V17.5746H177.251ZM191.789 33.062H184.164L182.907 36.7144H178.875L185.765 17.5391H190.236L197.126 36.7144H193.07L191.789 33.062ZM190.746 29.9906L187.971 21.986L185.196 29.9906H190.746ZM213.016 23.3261C212.577 22.5197 211.973 21.9149 211.202 21.488C210.431 21.0729 209.542 20.8595 208.51 20.8595C207.372 20.8595 206.375 21.1204 205.498 21.6303C204.62 22.1402 203.933 22.8754 203.446 23.8241C202.948 24.7728 202.711 25.8757 202.711 27.1208C202.711 28.4016 202.96 29.5163 203.47 30.465C203.968 31.4136 204.668 32.1489 205.569 32.6588C206.47 33.1687 207.502 33.4296 208.7 33.4296C210.158 33.4296 211.356 33.0383 212.293 32.2675C213.23 31.4848 213.835 30.4057 214.131 29.0182H207.526V26.0891H217.89V29.4333C217.629 30.7733 217.084 32.0066 216.242 33.1331C215.4 34.2716 214.321 35.1728 212.993 35.8606C211.664 36.5484 210.182 36.8923 208.534 36.8923C206.684 36.8923 205.024 36.4773 203.529 35.6472C202.035 34.8171 200.873 33.6549 200.019 32.1726C199.165 30.6903 198.738 29.0063 198.738 27.1208C198.738 25.2353 199.165 23.5514 200.019 22.0572C200.873 20.563 202.035 19.4009 203.529 18.5708C205.024 17.7407 206.684 17.3256 208.51 17.3256C210.668 17.3256 212.542 17.8474 214.131 18.9028C215.72 19.9582 216.823 21.4287 217.428 23.3379H213.016V23.3261ZM224.59 20.6697V25.4725H231.041V28.5201H224.59V33.5956H231.86V36.7263H220.748V17.5391H231.86V20.6697H224.59Z" fill="white"/>
</g>
<defs>
<linearGradient id="paint0_linear_930_2435" x1="26.0015" y1="52.003" x2="26.0015" y2="0" gradientUnits="userSpaceOnUse">
<stop stop-color="#F2F2F2"/>
<stop offset="1" stop-color="#898989"/>
</linearGradient>
<linearGradient id="paint1_linear_930_2435" x1="26.2837" y1="49.6469" x2="26.2837" y2="2.35613" gradientUnits="userSpaceOnUse">
<stop stop-color="#898989"/>
<stop offset="1" stop-color="#F2F2F2"/>
</linearGradient>
<linearGradient id="paint2_linear_930_2435" x1="23.4255" y1="38.0681" x2="42.1856" y2="19.308" gradientUnits="userSpaceOnUse">
<stop stop-color="#898989"/>
<stop offset="0.0368574" stop-color="#919191"/>
<stop offset="0.224" stop-color="#B4B4B4"/>
<stop offset="0.4139" stop-color="#CFCFCF"/>
<stop offset="0.6054" stop-color="#E2E2E2"/>
<stop offset="0.7995" stop-color="#EEEEEE"/>
<stop offset="1" stop-color="#F2F2F2"/>
</linearGradient>
<linearGradient id="paint3_linear_930_2435" x1="24.8094" y1="33.6267" x2="24.8094" y2="11.2496" gradientUnits="userSpaceOnUse">
<stop stop-color="#F2F2F2"/>
<stop offset="0.1787" stop-color="#EDEDED"/>
<stop offset="0.3807" stop-color="#E0E0E0"/>
<stop offset="0.5941" stop-color="#C9C9C9"/>
<stop offset="0.8138" stop-color="#AAAAAA"/>
<stop offset="1" stop-color="#898989"/>
</linearGradient>
<linearGradient id="paint4_linear_930_2435" x1="13.6851" y1="31.1552" x2="31.4228" y2="13.4175" gradientUnits="userSpaceOnUse">
<stop stop-color="#898989"/>
<stop offset="0.0933537" stop-color="#A0A0A0"/>
<stop offset="0.2429" stop-color="#BDBDBD"/>
<stop offset="0.4012" stop-color="#D5D5D5"/>
<stop offset="0.5704" stop-color="#E5E5E5"/>
<stop offset="0.7579" stop-color="#EFEFEF"/>
<stop offset="1" stop-color="#F2F2F2"/>
</linearGradient>
<linearGradient id="paint5_linear_930_2435" x1="21.1913" y1="39.197" x2="38.5492" y2="21.839" gradientUnits="userSpaceOnUse">
<stop stop-color="#F2F2F2"/>
<stop offset="0.255" stop-color="#EFEFEF"/>
<stop offset="0.4411" stop-color="#E6E6E6"/>
<stop offset="0.6053" stop-color="#D6D6D6"/>
<stop offset="0.7569" stop-color="#BFBFBF"/>
<stop offset="0.8983" stop-color="#A3A3A3"/>
<stop offset="1" stop-color="#898989"/>
</linearGradient>
<linearGradient id="paint6_linear_930_2435" x1="15.4386" y1="36.2167" x2="18.2621" y2="33.3933" gradientUnits="userSpaceOnUse">
<stop stop-color="#F2F2F2"/>
<stop offset="0.3045" stop-color="#C7C7C7"/>
<stop offset="0.598" stop-color="#A5A5A5"/>
<stop offset="0.8399" stop-color="#919191"/>
<stop offset="1" stop-color="#898989"/>
</linearGradient>
<linearGradient id="paint7_linear_930_2435" x1="36.614" y1="22.7325" x2="39.4375" y2="19.9091" gradientUnits="userSpaceOnUse">
<stop stop-color="#F2F2F2"/>
<stop offset="0.2138" stop-color="#E1E1E1"/>
<stop offset="0.6361" stop-color="#B4B4B4"/>
<stop offset="1" stop-color="#898989"/>
</linearGradient>
<linearGradient id="paint8_linear_930_2435" x1="35.4779" y1="17.8835" x2="36.9583" y2="19.364" gradientUnits="userSpaceOnUse">
<stop stop-color="#898989"/>
<stop offset="0.1662" stop-color="#A5A5A5"/>
<stop offset="0.3987" stop-color="#C7C7C7"/>
<stop offset="0.621" stop-color="#DFDFDF"/>
<stop offset="0.8268" stop-color="#EDEDED"/>
<stop offset="1" stop-color="#F2F2F2"/>
</linearGradient>
<linearGradient id="paint9_linear_930_2435" x1="13.3426" y1="33.6131" x2="16.1661" y2="30.7897" gradientUnits="userSpaceOnUse">
<stop stop-color="#898989"/>
<stop offset="0.0112612" stop-color="#8A8A8A"/>
<stop offset="0.4722" stop-color="#C2C2C2"/>
<stop offset="0.8153" stop-color="#E5E5E5"/>
<stop offset="1" stop-color="#F2F2F2"/>
</linearGradient>
<linearGradient id="paint10_linear_930_2435" x1="24.5338" y1="44.1917" x2="27.4687" y2="44.1917" gradientUnits="userSpaceOnUse">
<stop stop-color="#A4A6A9"/>
<stop offset="1" stop-color="#F2F2F2"/>
</linearGradient>
<linearGradient id="paint11_linear_930_2435" x1="24.5341" y1="44.1917" x2="27.4689" y2="44.1917" gradientUnits="userSpaceOnUse">
<stop stop-color="#F2F2F2"/>
<stop offset="0.41" stop-color="#F0F0F0"/>
<stop offset="0.5801" stop-color="#E9E9E9"/>
<stop offset="0.7059" stop-color="#DDDDDE"/>
<stop offset="0.8097" stop-color="#CBCCCD"/>
<stop offset="0.9001" stop-color="#B4B5B7"/>
<stop offset="0.9797" stop-color="#989A9D"/>
<stop offset="1" stop-color="#909295"/>
</linearGradient>
<linearGradient id="paint12_linear_930_2435" x1="24.5338" y1="7.81345" x2="27.4686" y2="7.81345" gradientUnits="userSpaceOnUse">
<stop stop-color="#898989"/>
<stop offset="1" stop-color="#F2F2F2"/>
</linearGradient>
<linearGradient id="paint13_linear_930_2435" x1="24.534" y1="7.81345" x2="27.4688" y2="7.81345" gradientUnits="userSpaceOnUse">
<stop stop-color="#F2F2F2"/>
<stop offset="0.2303" stop-color="#EFEFEF"/>
<stop offset="0.4193" stop-color="#E5E5E5"/>
<stop offset="0.5937" stop-color="#D3D3D3"/>
<stop offset="0.7592" stop-color="#BBBBBB"/>
<stop offset="0.9171" stop-color="#9C9C9C"/>
<stop offset="1" stop-color="#898989"/>
</linearGradient>
<clipPath id="clip0_930_2435">
<rect width="231.86" height="52" fill="white"/>
</clipPath>
</defs>
</svg>
