<svg width="25" height="25" viewBox="0 0 25 25" fill="none" xmlns="http://www.w3.org/2000/svg">
<path d="M17.6387 2.84125H7.63867C4.87725 2.84125 2.63867 5.07982 2.63867 7.84125V17.8412C2.63867 20.6027 4.87725 22.8412 7.63867 22.8412H17.6387C20.4001 22.8412 22.6387 20.6027 22.6387 17.8412V7.84125C22.6387 5.07982 20.4001 2.84125 17.6387 2.84125Z" stroke="white" stroke-linecap="round" stroke-linejoin="round"/>
<path d="M16.6384 12.2112C16.7618 13.0435 16.6196 13.8935 16.2321 14.6403C15.8446 15.3871 15.2315 15.9927 14.48 16.3709C13.7285 16.7492 12.8768 16.8808 12.0462 16.7472C11.2155 16.6135 10.4481 16.2213 9.85322 15.6264C9.2583 15.0315 8.86611 14.2641 8.73245 13.4335C8.59878 12.6028 8.73044 11.7511 9.10871 10.9996C9.48697 10.2481 10.0926 9.63498 10.8394 9.24749C11.5862 8.85999 12.4361 8.71783 13.2684 8.84124C14.1173 8.96713 14.9032 9.36271 15.5101 9.96955C16.1169 10.5764 16.5125 11.3623 16.6384 12.2112Z" stroke="white" stroke-linecap="round" stroke-linejoin="round"/>
<path d="M18.1387 7.34125H18.1487" stroke="white" stroke-linecap="round" stroke-linejoin="round"/>
</svg>
