<svg width="17" height="17" viewBox="0 0 22 19" fill="none" xmlns="http://www.w3.org/2000/svg">
    <path d="M19.5545 1.8047C19.0437 1.2937 18.4373 0.888343 17.7698 0.611781C17.1024 0.335218 16.387 0.192871 15.6645 0.192871C14.942 0.192871 14.2266 0.335218 13.5591 0.611781C12.8917 0.888343 12.2852 1.2937 11.7745 1.8047L10.7145 2.8647L9.65447 1.8047C8.62278 0.773005 7.22351 0.193406 5.76447 0.193406C4.30544 0.193406 2.90617 0.773005 1.87447 1.8047C0.842782 2.83639 0.263184 4.23566 0.263184 5.6947C0.263184 7.15373 0.842782 8.553 1.87447 9.5847L2.93447 10.6447L10.7145 18.4247L18.4945 10.6447L19.5545 9.5847C20.0655 9.07394 20.4708 8.46751 20.7474 7.80005C21.024 7.13259 21.1663 6.41718 21.1663 5.6947C21.1663 4.97221 21.024 4.2568 20.7474 3.58934C20.4708 2.92188 20.0655 2.31545 19.5545 1.8047Z" fill="#6A4DFD"/>
</svg>