<svg width="17" height="17" viewBox="0 0 17 17" fill="none" xmlns="http://www.w3.org/2000/svg">
<g clip-path="url(#clip0_1107_4473)">
<path d="M14.1187 3.22152C13.7782 2.88086 13.3739 2.61062 12.9289 2.42625C12.4839 2.24187 12.007 2.14697 11.5253 2.14697C11.0437 2.14697 10.5667 2.24187 10.1218 2.42625C9.6768 2.61062 9.27251 2.88086 8.93201 3.22152L8.22534 3.92819L7.51867 3.22152C6.83088 2.53373 5.89803 2.14733 4.92534 2.14733C3.95265 2.14733 3.0198 2.53373 2.33201 3.22152C1.64421 3.90932 1.25781 4.84217 1.25781 5.81486C1.25781 6.78754 1.64421 7.72039 2.33201 8.40819L3.03867 9.11486L8.22534 14.3015L13.412 9.11486L14.1187 8.40819C14.4593 8.06769 14.7296 7.6634 14.9139 7.21843C15.0983 6.77345 15.1932 6.29651 15.1932 5.81486C15.1932 5.3332 15.0983 4.85626 14.9139 4.41129C14.7296 3.96631 14.4593 3.56203 14.1187 3.22152V3.22152Z" stroke="white" stroke-linecap="round" stroke-linejoin="round"/>
</g>
<defs>
<clipPath id="clip0_1107_4473">
<rect width="16" height="16" fill="white" transform="translate(0.226562 0.147949)"/>
</clipPath>
</defs>
</svg>
