<svg width="63" height="63" viewBox="0 0 63 63" fill="none" xmlns="http://www.w3.org/2000/svg">
<path d="M60.3856 19.5414C58.8308 15.8522 56.5833 12.5306 53.7423 9.68949C50.9012 6.84841 47.5795 4.61512 43.8903 3.04616C40.074 1.43481 36.0173 0.61499 31.8334 0.61499C27.6495 0.61499 23.5929 1.43481 19.7623 3.04616C16.0732 4.60099 12.7515 6.84841 9.91044 9.68949C7.06936 12.5306 4.83607 15.8522 3.26711 19.5414C1.65575 23.3719 0.835938 27.4286 0.835938 31.6125C0.835938 35.7963 1.65575 39.853 3.26711 43.6835C4.82193 47.3727 7.06936 50.6944 9.91044 53.5354C12.7515 56.3765 16.0732 58.6098 19.7623 60.1788C23.5787 61.7901 27.6495 62.6099 31.8334 62.6099C36.0173 62.6099 40.074 61.7901 43.9045 60.1788C47.5936 58.6239 50.9153 56.3765 53.7564 53.5354C56.5975 50.6944 58.8308 47.3727 60.3997 43.6835C62.0111 39.8672 62.8309 35.7963 62.8309 31.6125C62.8309 27.4286 61.9969 23.3719 60.3856 19.5414ZM32.1585 59.7971C16.5962 59.7971 3.97385 47.1748 3.97385 31.6125C3.97385 16.0501 16.5962 3.4278 32.1585 3.4278C47.7209 3.4278 60.3432 16.036 60.3432 31.6125C60.3432 47.1889 47.735 59.7971 32.1585 59.7971Z" fill="url(#paint0_linear_1019_8716)"/>
<path d="M32.1573 3.42822C16.595 3.42822 3.97266 16.0505 3.97266 31.6129C3.97266 47.1752 16.595 59.7976 32.1573 59.7976C47.7197 59.7976 60.342 47.1752 60.342 31.6129C60.342 16.0505 47.7338 3.42822 32.1573 3.42822ZM31.8322 56.9847C17.8388 56.9847 6.46037 45.6063 6.46037 31.6129C6.46037 17.6195 17.8388 6.24104 31.8322 6.24104C45.8256 6.24104 57.2041 17.6195 57.2041 31.6129C57.2041 45.6063 45.8256 56.9847 31.8322 56.9847Z" fill="url(#paint1_linear_1019_8716)"/>
<path d="M45.7841 25.6476C46.5615 27.4709 46.9997 29.4922 46.9997 31.5983C46.9997 39.9802 40.2009 46.779 31.819 46.779C27.2535 46.779 23.1544 44.7577 20.384 41.5774L18.3203 42.8637C18.6595 43.2736 19.0129 43.6552 19.3946 44.0369C22.7162 47.3585 27.1263 49.1819 31.8331 49.1819C36.54 49.1819 40.95 47.3585 44.2717 44.0369C47.5934 40.7152 49.4167 36.3052 49.4167 31.5983C49.4167 29.054 48.8796 26.5946 47.8619 24.3472L45.7841 25.6476Z" fill="url(#paint2_linear_1019_8716)"/>
<path d="M16.6529 31.6124C16.6529 23.2305 23.4517 16.4317 31.8336 16.4317C37.1483 16.4317 41.8269 19.1597 44.5266 23.3012L46.5762 22.0149C45.9118 20.9972 45.1485 20.0502 44.2722 19.1739C40.9505 15.8522 36.5405 14.0288 31.8336 14.0288C27.1268 14.0288 22.7167 15.8522 19.395 19.1739C16.0734 22.4955 14.25 26.9056 14.25 31.6124C14.25 34.8634 15.1264 37.9872 16.7801 40.7011L18.8297 39.4148C17.4445 37.1391 16.6529 34.4676 16.6529 31.6124Z" fill="url(#paint3_linear_1019_8716)"/>
<path d="M19.0552 31.6128C19.0552 24.5737 24.7798 18.8492 31.8189 18.8492C36.2714 18.8492 40.1867 21.139 42.4765 24.5879L44.526 23.3016C41.8122 19.1601 37.1336 16.4321 31.833 16.4321C23.4511 16.4321 16.6523 23.2309 16.6523 31.6128C16.6523 34.4681 17.4439 37.1395 18.815 39.4152L20.8645 38.129C19.7196 36.2208 19.0552 33.9875 19.0552 31.6128Z" fill="url(#paint4_linear_1019_8716)"/>
<path d="M44.5956 31.6123C44.5956 38.6514 38.871 44.376 31.832 44.376C28.1286 44.376 24.7929 42.7929 22.4606 40.2769L20.3828 41.5773C23.1674 44.7718 27.2523 46.7789 31.8178 46.7789C40.1997 46.7789 46.9985 39.9801 46.9985 31.5982C46.9985 29.478 46.5603 27.4708 45.7829 25.6475L43.7051 26.9479C44.2847 28.3896 44.5956 29.9586 44.5956 31.6123Z" fill="url(#paint5_linear_1019_8716)"/>
<path d="M18.3203 42.864L22.4618 40.2773L21.8257 43.0195L18.3203 42.864Z" fill="url(#paint6_linear_1019_8716)"/>
<path d="M43.7227 26.9485L47.8642 24.3618L46.3941 27.316L43.7227 26.9485Z" fill="url(#paint7_linear_1019_8716)"/>
<path d="M46.5751 22.0153L42.4336 24.602L43.3382 21.7185L46.5751 22.0153Z" fill="url(#paint8_linear_1019_8716)"/>
<path d="M20.8915 38.1001L16.75 40.7009L17.9939 37.8457L20.8915 38.1001Z" fill="url(#paint9_linear_1019_8716)"/>
<path d="M30.082 49.0694V57.1968L31.8347 59.7976V46.7795L30.082 49.0694Z" fill="url(#paint10_linear_1019_8716)"/>
<path d="M31.832 46.7795V59.7976L33.5706 57.1968V49.0694L31.832 46.7795Z" fill="url(#paint11_linear_1019_8716)"/>
<path d="M30.082 6.2269V14.0858L31.8347 16.4322V3.42822L30.082 6.2269Z" fill="url(#paint12_linear_1019_8716)"/>
<path d="M31.832 3.42822V16.4322L33.5706 14.0858V6.2269L31.832 3.42822Z" fill="url(#paint13_linear_1019_8716)"/>
<defs>
<linearGradient id="paint0_linear_1019_8716" x1="31.8281" y1="62.5994" x2="31.8281" y2="0.61499" gradientUnits="userSpaceOnUse">
<stop stop-color="#F2F2F2"/>
<stop offset="1" stop-color="#898989"/>
</linearGradient>
<linearGradient id="paint1_linear_1019_8716" x1="32.1636" y1="59.7914" x2="32.1636" y2="3.42377" gradientUnits="userSpaceOnUse">
<stop stop-color="#898989"/>
<stop offset="1" stop-color="#F2F2F2"/>
</linearGradient>
<linearGradient id="paint2_linear_1019_8716" x1="28.7576" y1="45.9897" x2="51.1185" y2="23.6289" gradientUnits="userSpaceOnUse">
<stop stop-color="#898989"/>
<stop offset="0.0368574" stop-color="#919191"/>
<stop offset="0.224" stop-color="#B4B4B4"/>
<stop offset="0.4139" stop-color="#CFCFCF"/>
<stop offset="0.6054" stop-color="#E2E2E2"/>
<stop offset="0.7995" stop-color="#EEEEEE"/>
<stop offset="1" stop-color="#F2F2F2"/>
</linearGradient>
<linearGradient id="paint3_linear_1019_8716" x1="30.4079" y1="40.6959" x2="30.4079" y2="14.0237" gradientUnits="userSpaceOnUse">
<stop stop-color="#F2F2F2"/>
<stop offset="0.1787" stop-color="#EDEDED"/>
<stop offset="0.3807" stop-color="#E0E0E0"/>
<stop offset="0.5941" stop-color="#C9C9C9"/>
<stop offset="0.8138" stop-color="#AAAAAA"/>
<stop offset="1" stop-color="#898989"/>
</linearGradient>
<linearGradient id="paint4_linear_1019_8716" x1="17.1477" y1="37.7508" x2="38.2899" y2="16.6086" gradientUnits="userSpaceOnUse">
<stop stop-color="#898989"/>
<stop offset="0.0933537" stop-color="#A0A0A0"/>
<stop offset="0.2429" stop-color="#BDBDBD"/>
<stop offset="0.4012" stop-color="#D5D5D5"/>
<stop offset="0.5704" stop-color="#E5E5E5"/>
<stop offset="0.7579" stop-color="#EFEFEF"/>
<stop offset="1" stop-color="#F2F2F2"/>
</linearGradient>
<linearGradient id="paint5_linear_1019_8716" x1="26.0933" y1="47.3354" x2="46.7829" y2="26.6458" gradientUnits="userSpaceOnUse">
<stop stop-color="#F2F2F2"/>
<stop offset="0.255" stop-color="#EFEFEF"/>
<stop offset="0.4411" stop-color="#E6E6E6"/>
<stop offset="0.6053" stop-color="#D6D6D6"/>
<stop offset="0.7569" stop-color="#BFBFBF"/>
<stop offset="0.8983" stop-color="#A3A3A3"/>
<stop offset="1" stop-color="#898989"/>
</linearGradient>
<linearGradient id="paint6_linear_1019_8716" x1="19.2377" y1="43.7833" x2="22.6031" y2="40.4179" gradientUnits="userSpaceOnUse">
<stop stop-color="#F2F2F2"/>
<stop offset="0.3045" stop-color="#C7C7C7"/>
<stop offset="0.598" stop-color="#A5A5A5"/>
<stop offset="0.8399" stop-color="#919191"/>
<stop offset="1" stop-color="#898989"/>
</linearGradient>
<linearGradient id="paint7_linear_1019_8716" x1="44.4795" y1="27.7114" x2="47.8449" y2="24.346" gradientUnits="userSpaceOnUse">
<stop stop-color="#F2F2F2"/>
<stop offset="0.2138" stop-color="#E1E1E1"/>
<stop offset="0.6361" stop-color="#B4B4B4"/>
<stop offset="1" stop-color="#898989"/>
</linearGradient>
<linearGradient id="paint8_linear_1019_8716" x1="43.1225" y1="21.9318" x2="44.8871" y2="23.6964" gradientUnits="userSpaceOnUse">
<stop stop-color="#898989"/>
<stop offset="0.1662" stop-color="#A5A5A5"/>
<stop offset="0.3987" stop-color="#C7C7C7"/>
<stop offset="0.621" stop-color="#DFDFDF"/>
<stop offset="0.8268" stop-color="#EDEDED"/>
<stop offset="1" stop-color="#F2F2F2"/>
</linearGradient>
<linearGradient id="paint9_linear_1019_8716" x1="16.7382" y1="40.6799" x2="20.1036" y2="37.3145" gradientUnits="userSpaceOnUse">
<stop stop-color="#898989"/>
<stop offset="0.0112612" stop-color="#8A8A8A"/>
<stop offset="0.4722" stop-color="#C2C2C2"/>
<stop offset="0.8153" stop-color="#E5E5E5"/>
<stop offset="1" stop-color="#F2F2F2"/>
</linearGradient>
<linearGradient id="paint10_linear_1019_8716" x1="30.0804" y1="53.2895" x2="33.5786" y2="53.2895" gradientUnits="userSpaceOnUse">
<stop stop-color="#A4A6A9"/>
<stop offset="1" stop-color="#F2F2F2"/>
</linearGradient>
<linearGradient id="paint11_linear_1019_8716" x1="30.0777" y1="53.2895" x2="33.5758" y2="53.2895" gradientUnits="userSpaceOnUse">
<stop stop-color="#F2F2F2"/>
<stop offset="0.41" stop-color="#F0F0F0"/>
<stop offset="0.5801" stop-color="#E9E9E9"/>
<stop offset="0.7059" stop-color="#DDDDDE"/>
<stop offset="0.8097" stop-color="#CBCCCD"/>
<stop offset="0.9001" stop-color="#B4B5B7"/>
<stop offset="0.9797" stop-color="#989A9D"/>
<stop offset="1" stop-color="#909295"/>
</linearGradient>
<linearGradient id="paint12_linear_1019_8716" x1="30.0804" y1="9.92856" x2="33.5786" y2="9.92856" gradientUnits="userSpaceOnUse">
<stop stop-color="#898989"/>
<stop offset="1" stop-color="#F2F2F2"/>
</linearGradient>
<linearGradient id="paint13_linear_1019_8716" x1="30.0777" y1="9.92856" x2="33.5758" y2="9.92856" gradientUnits="userSpaceOnUse">
<stop stop-color="#F2F2F2"/>
<stop offset="0.2303" stop-color="#EFEFEF"/>
<stop offset="0.4193" stop-color="#E5E5E5"/>
<stop offset="0.5937" stop-color="#D3D3D3"/>
<stop offset="0.7592" stop-color="#BBBBBB"/>
<stop offset="0.9171" stop-color="#9C9C9C"/>
<stop offset="1" stop-color="#898989"/>
</linearGradient>
</defs>
</svg>
