<svg width="26" height="26" viewBox="0 0 26 26" fill="none" xmlns="http://www.w3.org/2000/svg">
<g clip-path="url(#clip0_1604_4915)">
<path d="M2.53643 5.25959L2.53645 5.25961L3.82216 6.65682L3.95292 6.79892L3.95422 6.99203L3.9898 12.2772C3.99961 13.7326 3.99833 15.0858 3.98834 16.0939C3.98335 16.5975 3.97616 17.0173 3.967 17.3214C3.96244 17.473 3.95728 17.5995 3.9514 17.6947C3.94849 17.7418 3.94512 17.786 3.941 17.8239L3.94069 17.8268C3.93834 17.8489 3.93073 17.9206 3.90669 17.9891C3.8779 18.0711 3.83015 18.1447 3.80654 18.1805C3.77436 18.2294 3.73493 18.2841 3.69177 18.3413C3.60492 18.4566 3.48948 18.6 3.35546 18.7606C3.08663 19.0827 2.73113 19.4876 2.35282 19.8992C1.98916 20.2948 1.66054 20.6772 1.42355 20.9742C1.94433 20.9943 2.83518 20.9973 4.36328 20.9973C5.73621 20.9973 6.63645 20.9893 7.20305 20.9681C6.94671 20.6609 6.61007 20.2743 6.24154 19.8673L4.75358 18.224L4.62381 18.0806L4.62422 17.8873L4.63337 13.5445C4.63337 13.5445 4.63337 13.5445 4.63337 13.5445C4.63582 12.3494 4.6414 11.2593 4.64839 10.4656C4.65188 10.069 4.65574 9.74525 4.65975 9.5191C4.66175 9.40644 4.66383 9.31577 4.66599 9.25172C4.66705 9.22042 4.66826 9.19131 4.66977 9.16779C4.67045 9.15717 4.67163 9.14031 4.67377 9.12238C4.67467 9.11477 4.67701 9.0958 4.68189 9.07279C4.68415 9.0621 4.68945 9.03841 4.69958 9.00953C4.69968 9.00927 4.69981 9.00887 4.69999 9.00834C4.70443 8.99513 4.73649 8.89977 4.82402 8.81504C4.97403 8.66984 5.16032 8.65951 5.28023 8.68608C5.3782 8.7078 5.44375 8.75356 5.46609 8.76977C5.51562 8.80571 5.54719 8.84307 5.55465 8.8519L5.55515 8.85249C5.57584 8.87693 5.59036 8.89893 5.59445 8.90514L5.59464 8.90542C5.60615 8.92286 5.61661 8.94063 5.62345 8.95243C5.63883 8.97894 5.65846 9.01447 5.68076 9.05555C5.72611 9.13915 5.79076 9.26113 5.8719 9.41593C6.03455 9.72623 6.26725 10.1757 6.55251 10.7302C7.1232 11.8397 7.90601 13.3733 8.76327 15.0633L11.754 20.9594L11.9072 20.973L11.9779 20.9793L14.4638 15.2771L14.9221 15.4769L14.4638 15.2771C15.1871 13.6179 15.8566 12.0876 16.3525 10.9587C16.6005 10.3943 16.8052 9.92985 16.9516 9.59963C17.0899 9.28765 17.1904 9.06262 17.2173 9.01306C17.2316 8.98663 17.285 8.88994 17.4015 8.81972C17.4687 8.77917 17.5606 8.74569 17.6698 8.74764C17.7785 8.74958 17.8676 8.78592 17.9312 8.8265C18.0417 8.89703 18.0924 8.9904 18.1062 9.01634C18.1265 9.0544 18.138 9.08752 18.1437 9.10528C18.1632 9.16612 18.1709 9.22847 18.1742 9.25512C18.1833 9.32895 18.1907 9.43189 18.1971 9.55099C18.2103 9.79458 18.222 10.154 18.2318 10.5993C18.2516 11.4919 18.2643 12.7468 18.2653 14.1493L18.2689 19.2411L18.269 19.4703L18.0955 19.62L17.0001 20.5653C17.0001 20.5653 17.0001 20.5653 17.0001 20.5653C16.8246 20.7168 16.6599 20.8661 16.516 21.0028C17.1928 21.0226 18.3822 21.0241 20.4763 21.0229C22.5785 21.0215 23.7684 21.0192 24.4437 21.0008C24.323 20.884 24.1877 20.7586 24.0445 20.6317C23.7675 20.3864 23.5041 20.1479 23.3025 19.9609C23.202 19.8676 23.1151 19.7856 23.0489 19.7211C22.9995 19.6729 22.9218 19.5972 22.878 19.5369C22.8294 19.4701 22.8091 19.4067 22.8038 19.3904L22.8036 19.3898C22.7954 19.364 22.7904 19.3417 22.7876 19.3282C22.7819 19.3006 22.7784 19.2743 22.7761 19.2553C22.7713 19.2153 22.7675 19.1674 22.7642 19.1169C22.7575 19.0139 22.7513 18.8718 22.7456 18.6982C22.734 18.3494 22.7236 17.8567 22.7148 17.2574C22.6973 16.058 22.6861 14.4233 22.6855 12.6423L22.6836 6.17183L22.6835 5.94552L22.8535 5.79612L23.917 4.86144C23.917 4.86143 23.917 4.86143 23.917 4.86142C24.1162 4.68633 24.3035 4.51105 24.4625 4.35336C23.9647 4.33929 23.1701 4.33719 21.9036 4.33719C20.9004 4.33719 20.0341 4.34957 19.4208 4.3702C19.1567 4.37908 18.9443 4.38935 18.7898 4.40039C18.7762 4.43435 18.7616 4.47004 18.7463 4.50704C18.663 4.70772 18.5497 4.96414 18.4259 5.22946C18.1667 5.78532 17.1545 8.05106 16.1872 10.2296C15.7042 11.3173 15.2335 12.3811 14.8751 13.1952C14.6959 13.6024 14.545 13.9466 14.4348 14.2001C14.3797 14.3269 14.3351 14.4303 14.3023 14.5072C14.2859 14.5456 14.2727 14.5767 14.2629 14.6004L14.2512 14.6288L14.2479 14.6371C14.2473 14.6386 14.247 14.6395 14.2469 14.6396C14.2469 14.6397 14.2469 14.6397 14.2469 14.6396L13.7787 14.4642C13.7657 14.4991 13.7337 14.4893 13.6784 14.4267C13.6784 14.4267 13.6783 14.4266 13.6783 14.4266C13.6252 14.3665 13.5506 14.2578 13.4504 14.0934L2.53643 5.25959ZM2.53643 5.25959C2.23683 4.93404 1.96228 4.62075 1.74801 4.36343M2.53643 5.25959L1.74801 4.36343M1.74801 4.36343C2.2827 4.34334 3.14964 4.33719 4.53279 4.33719H7.86565L7.95824 4.5337C7.95824 4.5337 7.95825 4.53371 7.95825 4.53371C8.08788 4.80885 9.33142 7.26682 10.7162 9.98604L1.74801 4.36343ZM17.1799 9.36458C17.1799 9.3646 17.1801 9.36578 17.1805 9.36833C17.1801 9.36589 17.1799 9.36457 17.1799 9.36458ZM18.9141 3.95462C18.9141 3.97663 18.9127 3.99769 18.9102 4.01782C18.9126 3.99788 18.9141 3.97654 18.9141 3.95462Z" stroke="white"/>
</g>
<defs>
<clipPath id="clip0_1604_4915">
<rect width="24.75" height="24.75" fill="white" transform="translate(0.625 0.743439)"/>
</clipPath>
</defs>
</svg>
