<svg width="16" height="17" viewBox="0 0 16 17" fill="none" xmlns="http://www.w3.org/2000/svg">
<path d="M12.6667 2.22241H3.33333C2.59695 2.22241 2 2.81937 2 3.55575V12.8891C2 13.6255 2.59695 14.2224 3.33333 14.2224H12.6667C13.403 14.2224 14 13.6255 14 12.8891V3.55575C14 2.81937 13.403 2.22241 12.6667 2.22241Z" stroke="white" stroke-linecap="round" stroke-linejoin="round"/>
<path d="M5.66797 6.88916C6.22025 6.88916 6.66797 6.44144 6.66797 5.88916C6.66797 5.33688 6.22025 4.88916 5.66797 4.88916C5.11568 4.88916 4.66797 5.33688 4.66797 5.88916C4.66797 6.44144 5.11568 6.88916 5.66797 6.88916Z" stroke="white" stroke-linecap="round" stroke-linejoin="round"/>
<path d="M13.9987 10.2225L10.6654 6.88916L3.33203 14.2225" stroke="white" stroke-linecap="round" stroke-linejoin="round"/>
</svg>
