<svg width="25" height="25" viewBox="0 0 25 25" fill="none" xmlns="http://www.w3.org/2000/svg">
<g clip-path="url(#clip0_1129_6071)">
<path d="M12.4246 15.2812C14.0814 15.2812 15.4246 13.9381 15.4246 12.2812C15.4246 10.6244 14.0814 9.28125 12.4246 9.28125C10.7677 9.28125 9.42456 10.6244 9.42456 12.2812C9.42456 13.9381 10.7677 15.2812 12.4246 15.2812Z" stroke="white" stroke-linecap="round" stroke-linejoin="round"/>
<path d="M19.8246 15.2812C19.6914 15.5829 19.6517 15.9174 19.7106 16.2418C19.7694 16.5662 19.924 16.8656 20.1546 17.1012L20.2146 17.1612C20.4005 17.347 20.548 17.5676 20.6487 17.8104C20.7493 18.0532 20.8011 18.3134 20.8011 18.5763C20.8011 18.8391 20.7493 19.0993 20.6487 19.3421C20.548 19.5849 20.4005 19.8055 20.2146 19.9912C20.0288 20.1772 19.8082 20.3247 19.5654 20.4254C19.3226 20.526 19.0624 20.5778 18.7996 20.5778C18.5367 20.5778 18.2765 20.526 18.0337 20.4254C17.7909 20.3247 17.5703 20.1772 17.3846 19.9912L17.3246 19.9312C17.0889 19.7007 16.7895 19.5461 16.4651 19.4872C16.1408 19.4284 15.8062 19.4681 15.5046 19.6012C15.2088 19.728 14.9565 19.9385 14.7789 20.2068C14.6012 20.4751 14.5058 20.7895 14.5046 21.1112V21.2812C14.5046 21.8117 14.2938 22.3204 13.9188 22.6955C13.5437 23.0705 13.035 23.2812 12.5046 23.2812C11.9741 23.2812 11.4654 23.0705 11.0903 22.6955C10.7153 22.3204 10.5046 21.8117 10.5046 21.2812V21.1912C10.4968 20.8603 10.3897 20.5392 10.1971 20.27C10.0045 20.0007 9.7353 19.7955 9.42456 19.6812C9.12294 19.5481 8.78837 19.5084 8.46397 19.5672C8.13958 19.6261 7.84024 19.7807 7.60456 20.0112L7.54456 20.0713C7.35881 20.2572 7.13824 20.4047 6.89544 20.5054C6.65264 20.606 6.39239 20.6578 6.12956 20.6578C5.86673 20.6578 5.60648 20.606 5.36368 20.5054C5.12088 20.4047 4.90031 20.2572 4.71456 20.0713C4.52861 19.8855 4.38109 19.6649 4.28044 19.4221C4.17979 19.1793 4.12799 18.9191 4.12799 18.6562C4.12799 18.3934 4.17979 18.1332 4.28044 17.8904C4.38109 17.6476 4.52861 17.427 4.71456 17.2412L4.77456 17.1812C5.0051 16.9456 5.15975 16.6462 5.21856 16.3218C5.27738 15.9974 5.23768 15.6629 5.10456 15.3612C4.9778 15.0655 4.76732 14.8132 4.49903 14.6356C4.23074 14.4579 3.91635 14.3625 3.59456 14.3612H3.42456C2.89413 14.3612 2.38542 14.1505 2.01035 13.7755C1.63527 13.4004 1.42456 12.8917 1.42456 12.3612C1.42456 11.8308 1.63527 11.3221 2.01035 10.947C2.38542 10.572 2.89413 10.3612 3.42456 10.3612H3.51456C3.84555 10.3535 4.16657 10.2464 4.43586 10.0538C4.70515 9.86115 4.91028 9.59199 5.02456 9.28125C5.15768 8.97963 5.19738 8.64506 5.13857 8.32066C5.07975 7.99627 4.9251 7.69693 4.69456 7.46125L4.63456 7.40125C4.44861 7.2155 4.30109 6.99493 4.20044 6.75213C4.09979 6.50933 4.04799 6.24908 4.04799 5.98625C4.04799 5.72342 4.09979 5.46317 4.20044 5.22037C4.30109 4.97757 4.44861 4.757 4.63456 4.57125C4.82031 4.3853 5.04088 4.23778 5.28368 4.13713C5.52648 4.03648 5.78673 3.98468 6.04956 3.98468C6.31239 3.98468 6.57264 4.03648 6.81544 4.13713C7.05824 4.23778 7.27881 4.3853 7.46456 4.57125L7.52456 4.63125C7.76024 4.86179 8.05958 5.01644 8.38397 5.07525C8.70837 5.13407 9.04294 5.09437 9.34456 4.96125H9.42456C9.72033 4.83449 9.97258 4.62401 10.1503 4.35572C10.3279 4.08743 10.4233 3.77304 10.4246 3.45125V3.28125C10.4246 2.75082 10.6353 2.24211 11.0103 1.86704C11.3854 1.49196 11.8941 1.28125 12.4246 1.28125C12.955 1.28125 13.4637 1.49196 13.8388 1.86704C14.2138 2.24211 14.4246 2.75082 14.4246 3.28125V3.37125C14.4258 3.69304 14.5212 4.00743 14.6989 4.27572C14.8765 4.54401 15.1288 4.75449 15.4246 4.88125C15.7262 5.01437 16.0608 5.05407 16.3851 4.99525C16.7095 4.93644 17.0089 4.78179 17.2446 4.55125L17.3046 4.49125C17.4903 4.3053 17.7109 4.15778 17.9537 4.05713C18.1965 3.95648 18.4567 3.90468 18.7196 3.90468C18.9824 3.90468 19.2426 3.95648 19.4854 4.05713C19.7282 4.15778 19.9488 4.3053 20.1346 4.49125C20.3205 4.677 20.468 4.89757 20.5687 5.14037C20.6693 5.38317 20.7211 5.64342 20.7211 5.90625C20.7211 6.16908 20.6693 6.42933 20.5687 6.67213C20.468 6.91493 20.3205 7.1355 20.1346 7.32125L20.0746 7.38125C19.844 7.61693 19.6894 7.91627 19.6306 8.24066C19.5717 8.56506 19.6114 8.89963 19.7446 9.20125V9.28125C19.8713 9.57702 20.0818 9.82927 20.3501 10.0069C20.6184 10.1846 20.9328 10.28 21.2546 10.2812H21.4246C21.955 10.2812 22.4637 10.492 22.8388 10.867C23.2138 11.2421 23.4246 11.7508 23.4246 12.2812C23.4246 12.8117 23.2138 13.3204 22.8388 13.6955C22.4637 14.0705 21.955 14.2812 21.4246 14.2812H21.3346C21.0128 14.2825 20.6984 14.3779 20.4301 14.5556C20.1618 14.7332 19.9513 14.9855 19.8246 15.2812V15.2812Z" stroke="white" stroke-linecap="round" stroke-linejoin="round"/>
</g>
<defs>
<clipPath id="clip0_1129_6071">
<rect width="24" height="24" fill="white" transform="translate(0.424561 0.28125)"/>
</clipPath>
</defs>
</svg>
