<svg width="25" height="24" viewBox="0 0 25 24" fill="none" xmlns="http://www.w3.org/2000/svg">
<path d="M7.16312 4.84859C6.96786 4.65333 6.65128 4.65333 6.45602 4.84859L3.27404 8.03058C3.07877 8.22584 3.07877 8.54242 3.27404 8.73768C3.4693 8.93294 3.78588 8.93294 3.98114 8.73768L6.80957 5.90926L9.638 8.73768C9.83326 8.93294 10.1498 8.93294 10.3451 8.73768C10.5404 8.54242 10.5404 8.22584 10.3451 8.03058L7.16312 4.84859ZM7.30957 21.2021L7.30957 5.20215L6.30957 5.20215L6.30957 21.2021L7.30957 21.2021Z" fill="white"/>
<path d="M17.8706 20.3536C18.0658 20.5488 18.3824 20.5488 18.5777 20.3536L21.7597 17.1716C21.9549 16.9763 21.9549 16.6597 21.7597 16.4645C21.5644 16.2692 21.2478 16.2692 21.0525 16.4645L18.2241 19.2929L15.3957 16.4645C15.2004 16.2692 14.8838 16.2692 14.6886 16.4645C14.4933 16.6597 14.4933 16.9763 14.6886 17.1716L17.8706 20.3536ZM17.7241 4L17.7241 20L18.7241 20L18.7241 4L17.7241 4Z" fill="white"/>
</svg>
