<svg width="24" height="19" viewBox="0 0 24 19" fill="none" xmlns="http://www.w3.org/2000/svg">
<path d="M23.3184 0.560349C22.3607 1.23583 21.3005 1.75246 20.1784 2.09035C19.5761 1.39786 18.7757 0.907041 17.8854 0.684275C16.9951 0.461509 16.0579 0.517544 15.2004 0.844802C14.343 1.17206 13.6068 1.75475 13.0913 2.51407C12.5759 3.27338 12.3061 4.17268 12.3184 5.09035V6.09035C10.561 6.13592 8.81963 5.74616 7.24937 4.95579C5.6791 4.16543 4.32868 2.99898 3.31836 1.56035C3.31836 1.56035 -0.681641 10.5603 8.31836 14.5603C6.25889 15.9583 3.80552 16.6593 1.31836 16.5603C10.3184 21.5603 21.3184 16.5603 21.3184 5.06035C21.3174 4.7818 21.2907 4.50394 21.2384 4.23035C22.259 3.22384 22.9792 1.95306 23.3184 0.560349V0.560349Z" stroke="white" stroke-linecap="round" stroke-linejoin="round"/>
</svg>
