<svg width="16" height="16" viewBox="0 0 16 16" fill="none" xmlns="http://www.w3.org/2000/svg">
<g clip-path="url(#clip0_1129_6066)">
<path d="M10.7996 13.4883V12.2383C10.7996 11.5752 10.5362 10.9394 10.0673 10.4705C9.59849 10.0017 8.9626 9.73828 8.29956 9.73828H3.29956C2.63652 9.73828 2.00063 10.0017 1.53179 10.4705C1.06295 10.9394 0.799561 11.5752 0.799561 12.2383V13.4883" stroke="white" stroke-linecap="round" stroke-linejoin="round"/>
<path d="M5.79956 7.23828C7.18027 7.23828 8.29956 6.11899 8.29956 4.73828C8.29956 3.35757 7.18027 2.23828 5.79956 2.23828C4.41885 2.23828 3.29956 3.35757 3.29956 4.73828C3.29956 6.11899 4.41885 7.23828 5.79956 7.23828Z" stroke="white" stroke-linecap="round" stroke-linejoin="round"/>
<path d="M14.5496 13.4881V12.2381C14.5491 11.6842 14.3648 11.1461 14.0254 10.7083C13.686 10.2705 13.2109 9.95782 12.6746 9.81934" stroke="white" stroke-linecap="round" stroke-linejoin="round"/>
<path d="M10.1746 2.31934C10.7123 2.45702 11.189 2.76977 11.5293 3.20828C11.8697 3.64679 12.0545 4.1861 12.0545 4.74121C12.0545 5.29632 11.8697 5.83564 11.5293 6.27414C11.189 6.71265 10.7123 7.0254 10.1746 7.16309" stroke="white" stroke-linecap="round" stroke-linejoin="round"/>
</g>
<defs>
<clipPath id="clip0_1129_6066">
<rect width="15" height="15" fill="white" transform="translate(0.174561 0.363281)"/>
</clipPath>
</defs>
</svg>
