<svg width="17" height="16" viewBox="0 0 17 16" fill="none" xmlns="http://www.w3.org/2000/svg">
<path d="M16.365 8C16.365 12.4183 12.7833 16 8.36499 16C3.94671 16 0.36499 12.4183 0.36499 8C0.36499 3.58172 3.94671 0 8.36499 0C12.7833 0 16.365 3.58172 16.365 8Z" fill="#2F80ED"/>
<path fill-rule="evenodd" clip-rule="evenodd" d="M8.36499 14.8C12.1205 14.8 15.165 11.7555 15.165 8C15.165 4.24446 12.1205 1.2 8.36499 1.2C4.60945 1.2 1.56499 4.24446 1.56499 8C1.56499 11.7555 4.60945 14.8 8.36499 14.8ZM8.36499 16C12.7833 16 16.365 12.4183 16.365 8C16.365 3.58172 12.7833 0 8.36499 0C3.94671 0 0.36499 3.58172 0.36499 8C0.36499 12.4183 3.94671 16 8.36499 16Z" fill="white"/>
<path fill-rule="evenodd" clip-rule="evenodd" d="M12.4064 5.77951L6.91387 11.1998L4.32349 8.58916L5.30055 7.61968L6.92409 9.25592L11.4396 4.7998L12.4064 5.77951Z" fill="white"/>
</svg>
